<svg width="26" height="26" viewBox="0 0 26 26" fill="none" xmlns="http://www.w3.org/2000/svg">
<path d="M22.9167 0.25H3.08333C1.525 0.25 0.25 1.525 0.25 3.08333V22.9167C0.25 24.475 1.525 25.75 3.08333 25.75H22.9167C24.475 25.75 25.75 24.475 25.75 22.9167V3.08333C25.75 1.525 24.475 0.25 22.9167 0.25ZM13 4.5C15.7342 4.5 17.9583 6.72417 17.9583 9.45833C17.9583 12.1925 15.7342 14.4167 13 14.4167C10.2658 14.4167 8.04167 12.1925 8.04167 9.45833C8.04167 6.72417 10.2658 4.5 13 4.5ZM22.9167 22.9167H3.08333V22.5908C3.08333 21.7125 3.48 20.8908 4.16 20.3525C6.5825 18.4117 9.65667 17.25 13 17.25C16.3433 17.25 19.4175 18.4117 21.84 20.3525C22.52 20.8908 22.9167 21.7267 22.9167 22.5908V22.9167Z" fill="white"/>
</svg>
